<?xml version="1.0" standalone="no"?><!DOCTYPE svg PUBLIC "-//W3C//DTD SVG 1.1//EN" "http://www.w3.org/Graphics/SVG/1.1/DTD/svg11.dtd"><svg t="1730530488109" class="icon" viewBox="0 0 1024 1024" version="1.1" xmlns="http://www.w3.org/2000/svg" p-id="10328" xmlns:xlink="http://www.w3.org/1999/xlink" width="200" height="200"><path d="M703.8976 484.693333h-292.864a20.0704 20.0704 0 0 1 0-40.1408h292.864a20.0704 20.0704 0 0 1 0 40.1408zM344.8832 325.0176h-53.521067a20.48 20.48 0 1 1 0-40.96h53.521067a20.48 20.48 0 1 1 0 40.96zM344.8832 481.553067h-53.521067a20.48 20.48 0 1 1 0-40.96h53.521067a20.48 20.48 0 1 1 0 40.96zM342.152533 644.983467h-54.613333a21.026133 21.026133 0 1 1 0-42.052267h54.613333a21.026133 21.026133 0 0 1 0 42.052267zM699.8016 323.584H412.4672a20.0704 20.0704 0 0 1 0-40.1408h287.3344a20.0704 20.0704 0 0 1 0 40.1408zM703.8976 644.983467h-292.864a20.0704 20.0704 0 0 1 0-40.1408h292.864a20.0704 20.0704 0 0 1 0 40.1408z" p-id="10329"></path></svg>